<?xml version="1.0" standalone="no"?>
<!DOCTYPE svg PUBLIC "-//W3C//DTD SVG 20010904//EN"
 "http://www.w3.org/TR/2001/REC-SVG-20010904/DTD/svg10.dtd">
<svg version="1.0" xmlns="http://www.w3.org/2000/svg"
 width="64.000000pt" height="64.000000pt" viewBox="0 0 64.000000 64.000000"
 preserveAspectRatio="xMidYMid meet">

<g transform="translate(0.000000,64.000000) scale(0.100000,-0.100000)"
fill="#000000" stroke="none">
<path d="M307 624 c-4 -4 -7 -68 -7 -143 0 -123 -3 -141 -25 -188 -26 -57 -27
-58 -56 -43 -23 13 -24 33 -3 51 13 11 15 25 10 78 -11 103 -61 193 -101 178
-13 -5 -15 -35 -15 -196 0 -104 3 -196 6 -205 8 -22 84 -23 84 -1 0 9 -9 15
-25 15 l-25 0 0 172 c0 161 1 171 16 150 9 -13 21 -54 27 -92 9 -61 8 -72 -6
-88 -31 -34 -15 -77 36 -95 13 -5 17 -17 17 -50 0 -48 54 -152 80 -152 8 0 29
25 47 55 25 41 33 66 33 102 0 40 3 48 18 48 23 0 52 30 52 55 0 10 -8 27 -17
37 -14 16 -15 27 -6 88 6 38 18 79 27 92 15 21 16 11 16 -150 l0 -172 -30 0
c-20 0 -30 -5 -30 -15 0 -22 86 -21 94 1 3 9 6 101 6 205 0 161 -2 191 -15
196 -39 15 -92 -79 -102 -179 -4 -51 -2 -66 11 -77 21 -18 20 -38 -3 -51 -28
-14 -28 -14 -53 32 -20 38 -24 62 -28 192 -5 139 -12 171 -33 150z m32 -350
c11 -31 11 -38 -3 -52 -15 -15 -17 -15 -32 0 -14 14 -14 21 -3 52 7 20 16 36
19 36 3 0 12 -16 19 -36z m-39 -113 c0 -14 5 -33 10 -41 9 -13 11 -13 20 0 5
8 10 27 10 41 0 15 7 32 15 39 13 11 15 7 15 -24 0 -38 -33 -116 -50 -116 -17
0 -50 78 -50 116 0 31 2 35 15 24 8 -7 15 -24 15 -39z"/>
</g>
</svg>
