<?xml version="1.0" standalone="no"?>
<!DOCTYPE svg PUBLIC "-//W3C//DTD SVG 20010904//EN"
 "http://www.w3.org/TR/2001/REC-SVG-20010904/DTD/svg10.dtd">
<svg version="1.0" xmlns="http://www.w3.org/2000/svg"
 width="256.000000pt" height="48.000000pt" viewBox="0 0 256.000000 48.000000"
 preserveAspectRatio="xMidYMid meet">

<g transform="translate(0.000000,48.000000) scale(0.100000,-0.100000)"
fill="#000000" stroke="none">
<path d="M1330 375 c-6 -115 -25 -175 -56 -175 -20 0 -29 27 -14 45 20 24 4
122 -26 162 -14 18 -29 33 -35 33 -6 0 -8 -60 -7 -157 l3 -158 28 -3 c31 -4
38 17 7 25 -19 5 -20 14 -20 132 1 111 2 124 15 107 21 -28 30 -103 15 -130
-16 -31 -10 -59 18 -71 15 -7 22 -18 22 -38 0 -29 32 -101 50 -112 17 -10 11
18 -10 50 -21 31 -27 85 -10 85 5 0 12 -12 16 -27 10 -48 12 -49 13 -8 1 23
-4 46 -10 52 -7 7 -7 22 1 49 6 22 10 85 8 144 l-3 105 -5 -110z"/>
<path d="M280 453 c-76 -30 -89 -133 -25 -193 14 -13 25 -29 25 -36 0 -7 4
-16 10 -19 6 -3 7 1 4 9 -4 9 0 18 9 22 12 4 14 11 6 31 -5 13 -9 30 -9 36 0
13 77 62 97 62 6 0 15 4 20 9 5 5 2 6 -6 1 -9 -5 -12 -4 -7 3 11 18 39 15 32
-4 -3 -8 -2 -12 4 -9 6 3 10 4 10 2 0 -3 -29 -24 -64 -47 -38 -24 -63 -47 -60
-54 3 -7 0 -25 -6 -40 -6 -17 -6 -25 0 -21 6 4 10 -8 10 -29 0 -36 0 -36 45
-36 l45 0 0 40 c0 38 2 40 30 40 42 0 80 20 86 46 11 42 0 68 -34 86 -18 9
-41 23 -51 32 -10 9 -21 16 -26 16 -5 0 -21 11 -35 25 -27 26 -82 40 -110 28z
m-30 -41 c0 -5 -7 -17 -15 -28 -14 -18 -14 -17 -4 9 12 27 19 34 19 19z m214
-108 c7 -19 -10 -44 -30 -44 -9 0 -14 11 -14 30 0 23 5 30 19 30 10 0 22 -7
25 -16z"/>
<path d="M800 255 l0 -115 35 0 35 0 0 115 0 115 -35 0 -35 0 0 -115z"/>
<path d="M925 360 c-4 -7 -3 -16 3 -22 14 -14 45 -2 40 15 -6 16 -34 21 -43 7z"/>
<path d="M1042 327 c-44 -44 -53 -67 -27 -67 10 0 15 -11 15 -35 0 -73 42
-109 102 -86 32 12 39 22 32 48 -4 15 -12 19 -30 15 -21 -4 -24 -1 -24 27 0
26 4 31 25 31 33 0 36 37 3 42 -15 2 -24 13 -30 36 -5 17 -12 32 -16 32 -4 0
-27 -19 -50 -43z"/>
<path d="M350 319 c-22 -18 -22 -19 -3 -10 12 6 25 16 28 21 9 15 3 12 -25
-11z"/>
<path d="M608 304 c-106 -57 -25 -200 93 -165 45 14 69 44 69 86 -1 74 -91
118 -162 79z m86 -67 c9 -15 7 -21 -8 -33 -26 -19 -33 -18 -46 7 -22 41 29 66
54 26z"/>
<path d="M923 314 c-9 -4 -13 -32 -13 -90 l0 -84 35 0 36 0 -3 88 c-3 79 -5
87 -23 89 -11 1 -26 -1 -32 -3z"/>
</g>
</svg>
